<svg width="32" height="32" viewBox="0 0 32 32" fill="none" xmlns="http://www.w3.org/2000/svg">
<rect width="32" height="32" rx="16" fill="#4BB72E"/>
<path fill-rule="evenodd" clip-rule="evenodd" d="M23.891 13.546C24 13.7599 24 14.0399 24 14.6V20.4C24 20.6491 24 20.8429 23.9904 21H24V25L21 22H12.6C12.0399 22 11.7599 22 11.546 21.891C11.3578 21.7951 11.2049 21.6422 11.109 21.454C11 21.2401 11 20.9601 11 20.4V14.6C11 14.0399 11 13.7599 11.109 13.546C11.2049 13.3578 11.3578 13.2049 11.546 13.109C11.7599 13 12.0399 13 12.6 13H22.4C22.9601 13 23.2401 13 23.454 13.109C23.6422 13.2049 23.7951 13.3578 23.891 13.546Z" fill="white"/>
<path d="M9 12.6C9 12.0399 9 11.7599 9.10899 11.546C9.20487 11.3578 9.35785 11.2049 9.54601 11.109C9.75992 11 10.0399 11 10.6 11H20.4C20.9601 11 21.2401 11 21.454 11.109C21.6422 11.2049 21.7951 11.3578 21.891 11.546C22 11.7599 22 12.0399 22 12.6V18.4C22 18.9601 22 19.2401 21.891 19.454C21.7951 19.6422 21.6422 19.7951 21.454 19.891C21.2401 20 20.9601 20 20.4 20H10.6C10.0399 20 9.75992 20 9.54601 19.891C9.35785 19.7951 9.20487 19.6422 9.10899 19.454C9 19.2401 9 18.9601 9 18.4V12.6Z" fill="#4BB72E"/>
<path fill-rule="evenodd" clip-rule="evenodd" d="M8 11.6C8 11.0399 8 10.7599 8.10899 10.546C8.20487 10.3578 8.35785 10.2049 8.54601 10.109C8.75992 10 9.03995 10 9.6 10H19.4C19.9601 10 20.2401 10 20.454 10.109C20.6422 10.2049 20.7951 10.3578 20.891 10.546C21 10.7599 21 11.0399 21 11.6V17.4C21 17.9601 21 18.2401 20.891 18.454C20.7951 18.6422 20.6422 18.7951 20.454 18.891C20.2401 19 19.9601 19 19.4 19H11L8 22V18H8.00959C8 17.8429 8 17.6491 8 17.4V11.6ZM11.4496 15.2996C11.9191 15.2996 12.2996 14.9191 12.2996 14.4496C12.2996 13.9802 11.9191 13.5996 11.4496 13.5996C10.9802 13.5996 10.5996 13.9802 10.5996 14.4496C10.5996 14.9191 10.9802 15.2996 11.4496 15.2996ZM15.3992 14.4496C15.3992 14.9191 15.0187 15.2996 14.5492 15.2996C14.0798 15.2996 13.6992 14.9191 13.6992 14.4496C13.6992 13.9802 14.0798 13.5996 14.5492 13.5996C15.0187 13.5996 15.3992 13.9802 15.3992 14.4496ZM17.6488 15.2996C18.1183 15.2996 18.4988 14.9191 18.4988 14.4496C18.4988 13.9802 18.1183 13.5996 17.6488 13.5996C17.1794 13.5996 16.7988 13.9802 16.7988 14.4496C16.7988 14.9191 17.1794 15.2996 17.6488 15.2996Z" fill="white"/>
</svg>