<svg version="1.2" baseProfile="tiny-ps" xmlns="http://www.w3.org/2000/svg" viewBox="0 0 48 48">
	<title>Чат-svg</title>
	<defs>
		<clipPath clipPathUnits="userSpaceOnUse" id="cp1">
			<path d="M21 11L40 11L40 25L21 25L21 11ZM30.93 13C28.17 13 25.93 15.24 25.93 18C25.93 18.96 26.2 19.85 26.66 20.61L25 23L30.57 23L30.57 22.99C30.69 23 30.81 23 30.93 23L33 23C35.76 23 38 20.76 38 18C38 15.24 35.76 13 33 13L30.93 13Z" />
		</clipPath>
	</defs>
	<style>
		tspan { white-space:pre }
		.shp0 { fill: #15c42d }
		.shp1 { fill: #ffffff }
		.shp2 { fill: none;stroke: #ffffff;stroke-width: 2 }
	</style>
	<g id="Layer">
		<path id="Layer" class="shp0" d="M24 48C37.25 48 48 37.25 48 24C48 10.75 37.25 0 24 0C10.75 0 0 10.75 0 24C0 37.25 10.75 48 24 48Z" />
		<path id="Layer" fill-rule="evenodd" class="shp1" d="M18 18.5C18 16.01 20.01 14 22.5 14C23.96 14 25.26 14.7 26.08 15.78L26.45 13.34C25.35 12.5 23.99 12 22.5 12C18.91 12 16 14.91 16 18.5C16 22.09 18.91 25 22.5 25C24.34 25 26.01 24.23 27.19 23L25 23L25.13 22.15C24.39 22.69 23.48 23 22.5 23C20.01 23 18 20.99 18 18.5Z" />
		<g id="Clip-Path" clip-path="url(#cp1)">
			<path id="Layer" class="shp1" d="M26.66 20.61L28.3 21.75L29.05 20.68L28.37 19.57L26.66 20.61ZM25 23L23.36 21.86L21.17 25L25 25L25 23ZM30.57 23L30.57 25L32.57 25L32.57 23L30.57 23ZM30.57 22.99L30.71 20.99L28.57 20.84L28.57 22.99L30.57 22.99ZM27.93 18C27.93 16.34 29.27 15 30.93 15L30.93 11C27.06 11 23.93 14.13 23.93 18L27.93 18ZM28.37 19.57C28.09 19.11 27.93 18.58 27.93 18L23.93 18C23.93 19.34 24.31 20.59 24.96 21.66L28.37 19.57ZM25.02 19.47L23.36 21.86L26.64 24.14L28.3 21.75L25.02 19.47ZM25 25L30.57 25L30.57 21L25 21L25 25ZM32.57 23L32.57 22.99L28.57 22.99L28.57 23L32.57 23ZM30.93 21C30.86 21 30.78 21 30.71 20.99L30.43 24.98C30.6 24.99 30.76 25 30.93 25L30.93 21ZM33 21L30.93 21L30.93 25L33 25L33 21ZM36 18C36 19.66 34.66 21 33 21L33 25C36.87 25 40 21.87 40 18L36 18ZM33 15C34.66 15 36 16.34 36 18L40 18C40 14.13 36.87 11 33 11L33 15ZM30.93 15L33 15L33 11L30.93 11L30.93 15Z" />
		</g>
		<path id="Layer" fill-rule="evenodd" class="shp1" d="M28 18C28 17.45 28.45 17 29 17C29.55 17 30 17.45 30 18C30 18.55 29.55 19 29 19C28.45 19 28 18.55 28 18ZM31 18C31 17.45 31.45 17 32 17C32.55 17 33 17.45 33 18C33 18.55 32.55 19 32 19C31.45 19 31 18.55 31 18ZM36 18C36 18.55 35.55 19 35 19C34.45 19 34 18.55 34 18C34 17.45 34.45 17 35 17C35.55 17 36 17.45 36 18Z" />
		<path id="Layer" class="shp2" d="M32 31.44C32 35.56 32 34.97 22.5 34.97C13 34.97 13 35.56 13 31.44C13 27.33 17.25 24 22.5 24C27.75 24 32 27.33 32 31.44Z" />
	</g>
</svg>