<svg width="32" height="32" viewBox="0 0 32 32" fill="none" xmlns="http://www.w3.org/2000/svg">
<rect width="32" height="32" rx="16" fill="#754A91"/>
<path d="M12.2657 22.5417C12.2657 22.2734 12.2657 22.0052 12.2657 21.737C12.2676 21.726 12.2672 21.7148 12.2646 21.704C12.2619 21.6931 12.2571 21.683 12.2503 21.6741C12.2435 21.6652 12.235 21.6578 12.2252 21.6524C12.2154 21.6469 12.2046 21.6435 12.1934 21.6423C11.5225 21.4534 10.9032 21.117 10.3817 20.658C10.0017 20.3155 9.68538 19.9096 9.44702 19.4588C9.11106 18.8076 8.88747 18.1052 8.78553 17.3809C8.65922 16.4722 8.61535 15.5542 8.65445 14.6378C8.66303 14.2106 8.68508 13.7882 8.73408 13.3609C8.81222 12.5491 9.01892 11.7544 9.34657 11.0063C9.75116 10.0864 10.4851 9.34746 11.407 8.93199C12.035 8.64726 12.6956 8.43939 13.3743 8.31298C14.0399 8.18807 14.7138 8.1114 15.3907 8.08358C16.0008 8.06221 16.6116 8.07112 17.2208 8.11029C18.0927 8.14675 18.9568 8.28984 19.7933 8.53631C20.4135 8.71345 21.0035 8.98141 21.5438 9.33131C22.0702 9.68938 22.496 10.1743 22.781 10.7405C23.1161 11.4017 23.3439 12.1111 23.456 12.8427C23.5288 13.277 23.5767 13.715 23.5993 14.1547C23.6312 14.6997 23.6275 15.2471 23.6067 15.7896C23.5858 16.3322 23.5393 16.8589 23.4719 17.3906C23.3868 18.1885 23.1392 18.961 22.7443 19.6615C22.2302 20.5476 21.4067 21.2167 20.4291 21.5428C19.7606 21.7747 19.0703 21.9398 18.3686 22.0356C17.8553 22.106 17.3409 22.1569 16.8239 22.1776C16.4282 22.1958 16.0326 22.1909 15.6369 22.1848C15.4127 22.1848 15.1898 22.163 14.9668 22.1436C14.9449 22.1395 14.9223 22.1419 14.9018 22.1506C14.8813 22.1592 14.8639 22.1737 14.8517 22.1921C14.4009 22.7286 13.9329 23.2505 13.4613 23.77C13.3754 23.8648 13.2759 23.9466 13.1661 24.0127C13.094 24.0596 13.0118 24.089 12.9261 24.0986C12.8404 24.1082 12.7536 24.0977 12.6728 24.0679C12.5919 24.0381 12.5193 23.9899 12.4607 23.9272C12.4021 23.8645 12.3593 23.789 12.3355 23.7069C12.2889 23.5609 12.2657 23.4085 12.2669 23.2554C12.2657 23.015 12.2657 22.7784 12.2657 22.5417ZM12.8108 23.56L12.8684 23.5066L13.8913 22.3815C14.2849 21.9486 14.6781 21.5153 15.0709 21.0816C15.0903 21.0551 15.1163 21.0342 15.1464 21.021C15.1766 21.0077 15.2097 21.0027 15.2424 21.0063C15.376 21.0197 15.5095 21.0245 15.6442 21.0257C16.1097 21.0257 16.5752 21.0257 17.0407 20.993C17.4634 20.9602 17.8847 20.9092 18.3037 20.8437C18.7548 20.7659 19.2013 20.6642 19.6414 20.539C20.6214 20.2781 21.3796 19.7197 21.8562 18.8155C22.1375 18.2596 22.3139 17.6574 22.3768 17.0386C22.4512 16.4554 22.4958 15.8688 22.5103 15.2811C22.532 14.5428 22.4812 13.8042 22.3584 13.0757C22.2733 12.5479 22.1202 12.0331 21.9027 11.544C21.6259 10.9371 21.2339 10.4346 20.63 10.1117C19.7039 9.61654 18.7018 9.39564 17.6692 9.28276C17.3764 9.2512 17.0836 9.23421 16.7896 9.22329C16.1876 9.19254 15.5844 9.19578 14.9827 9.233C14.5501 9.26481 14.1197 9.32237 13.6941 9.40535C13.068 9.51842 12.4624 9.72294 11.897 10.0122C11.5692 10.1763 11.2718 10.3942 11.0175 10.6567C10.6052 11.1133 10.3028 11.6565 10.133 12.2455C9.93158 12.9315 9.82163 13.6407 9.80594 14.355C9.76653 15.0693 9.77553 15.7854 9.83289 16.4985C9.86858 16.9228 9.94029 17.3435 10.0473 17.7559C10.2064 18.3986 10.5152 18.9955 10.9489 19.4988C11.4171 20.0123 12.0222 20.3843 12.6945 20.5718C12.779 20.5973 12.817 20.6264 12.817 20.7211C12.8096 21.0706 12.817 21.4202 12.817 21.7697L12.8108 23.56Z" fill="white"/>
<path d="M11.9535 12.7191C11.945 12.4533 12.0907 12.2603 12.2671 12.0868C12.4998 11.8659 12.7561 11.671 13.0315 11.5054C13.1571 11.4286 13.3064 11.3994 13.4521 11.423C13.5977 11.4467 13.7298 11.5216 13.8241 11.634C14.1573 11.9811 14.4556 12.3596 14.7147 12.764C14.8429 12.946 14.9398 13.1478 15.0013 13.3612C15.0259 13.4445 15.0275 13.5328 15.0059 13.6169C14.9844 13.701 14.9405 13.7778 14.8788 13.8394C14.7375 13.9768 14.5869 14.1046 14.428 14.2217C14.348 14.2849 14.2884 14.3701 14.2569 14.4665C14.2253 14.563 14.223 14.6665 14.2504 14.7643C14.3485 15.2232 14.5708 15.6469 14.8935 15.9902C15.2856 16.4644 15.7908 16.8345 16.3635 17.0667C16.5042 17.1384 16.6654 17.1603 16.8204 17.1286C16.9053 17.1057 16.9807 17.0569 17.036 16.9891C17.1218 16.881 17.2149 16.7767 17.292 16.6614C17.3921 16.5175 17.545 16.4181 17.718 16.3843C17.891 16.3506 18.0704 16.3851 18.2181 16.4805C18.6334 16.7192 19.0254 16.9955 19.3892 17.3058C19.475 17.3787 19.5644 17.4491 19.6501 17.5231C19.7516 17.5998 19.8249 17.7073 19.8587 17.8292C19.8926 17.9511 19.8851 18.0806 19.8376 18.1979C19.7619 18.3952 19.6516 18.5777 19.5117 18.7369C19.3379 18.9762 19.1166 19.1777 18.8612 19.3292C18.7392 19.4002 18.602 19.4419 18.4608 19.4509C18.3196 19.46 18.1781 19.4362 18.0479 19.3813C17.0567 18.986 16.1307 18.4464 15.3002 17.7804C14.4879 17.1179 13.778 16.3409 13.1932 15.4743C12.7011 14.7569 12.3096 13.9766 12.0295 13.1548C11.9996 13.0555 11.9751 12.9546 11.956 12.8526C11.9505 12.8083 11.9497 12.7636 11.9535 12.7191Z" fill="white"/>
<path d="M16.1823 11.4271C17.0115 11.4423 17.809 11.7454 18.4358 12.2835C19.0627 12.8216 19.479 13.5606 19.6122 14.3717C19.6659 14.6666 19.6946 14.9654 19.698 15.265C19.698 15.3354 19.6796 15.3864 19.6037 15.3937C19.5277 15.4009 19.5081 15.3366 19.5081 15.2723C19.5195 14.6662 19.3939 14.0653 19.1406 13.5136C18.9273 13.0602 18.6113 12.6617 18.2172 12.3491C17.823 12.0365 17.3614 11.8182 16.8683 11.7112C16.6075 11.6513 16.3409 11.6204 16.0732 11.6189C16.0472 11.6194 16.0212 11.6161 15.9961 11.6092C15.9747 11.6032 15.9565 11.5893 15.9453 11.5702C15.9341 11.5512 15.9308 11.5286 15.936 11.5073C15.9362 11.4971 15.9384 11.4871 15.9425 11.4778C15.9466 11.4685 15.9525 11.4601 15.9599 11.4531C15.9674 11.4461 15.9761 11.4406 15.9857 11.437C15.9952 11.4334 16.0054 11.4317 16.0157 11.432C16.0708 11.4247 16.1271 11.4271 16.1823 11.4271Z" fill="white"/>
<path d="M18.5484 14.7191C18.5443 14.3819 18.4605 14.0504 18.3037 13.7511C18.1469 13.4518 17.9215 13.193 17.6456 12.9956C17.3236 12.7715 16.9492 12.6324 16.5578 12.5914C16.4917 12.5829 16.4255 12.5793 16.3581 12.572C16.2908 12.5647 16.2503 12.5368 16.2565 12.4688C16.2626 12.4009 16.3055 12.3766 16.379 12.3815C17.4643 12.447 18.388 13.0551 18.6721 14.1875C18.7241 14.4059 18.75 14.6295 18.7493 14.8539C18.7493 14.8745 18.7493 14.8951 18.7493 14.9145C18.7493 14.9752 18.7101 15.0153 18.6501 15.0141C18.6368 15.0136 18.6237 15.0105 18.6117 15.0049C18.5996 14.9993 18.5888 14.9913 18.58 14.9814C18.5712 14.9715 18.5645 14.9599 18.5603 14.9474C18.5561 14.9349 18.5546 14.9216 18.5558 14.9085C18.546 14.8514 18.5484 14.7932 18.5484 14.7191Z" fill="white"/>
<path d="M16.647 13.3668C17.2423 13.4068 17.6576 13.6957 17.7715 14.3232C17.7853 14.4036 17.7951 14.4846 17.8009 14.566C17.8009 14.6315 17.7862 14.6873 17.7139 14.6873C17.6417 14.6873 17.6172 14.6388 17.6147 14.566C17.614 14.3254 17.5392 14.0908 17.4003 13.8936C17.2544 13.7149 17.0448 13.5985 16.8148 13.5683C16.7634 13.5587 16.7114 13.5523 16.6592 13.5489C16.5735 13.5489 16.5257 13.5064 16.5367 13.4408C16.5477 13.3753 16.5992 13.3632 16.647 13.3668Z" fill="white"/>
</svg>
