<svg width="40" height="40" viewBox="0 0 40 40" fill="none" xmlns="http://www.w3.org/2000/svg">
<path d="M35.8132 21.1333C35.8236 21.1077 35.8236 21.079 35.8132 21.0533L35.5332 20.56L32.9332 16.12L31.3866 13.4533C31.3447 13.3777 31.2826 13.3153 31.2072 13.2729C31.1319 13.2305 31.0463 13.2099 30.9599 13.2133H24.3732V8.89334C24.3707 8.76324 24.3182 8.63911 24.2266 8.54667C24.1823 8.49831 24.1289 8.45925 24.0693 8.43178C24.0098 8.4043 23.9454 8.38897 23.8799 8.38667H4.19991C4.06786 8.39015 3.94238 8.44506 3.85023 8.53971C3.75808 8.63435 3.70653 8.76124 3.70658 8.89334C3.61324 11.4667 3.57324 14.1467 3.57324 16.8933C3.57324 19.64 3.57324 22.12 3.70658 24.6133L3.89324 28C3.90015 28.1285 3.95699 28.2492 4.05164 28.3364C4.1463 28.4236 4.27127 28.4703 4.39991 28.4667H7.06658C7.17444 29.3562 7.60428 30.1754 8.27492 30.7696C8.94555 31.3638 9.81056 31.6919 10.7066 31.6919C11.6026 31.6919 12.4676 31.3638 13.1382 30.7696C13.8089 30.1754 14.2387 29.3562 14.3466 28.4667H24.3466C24.4659 29.3456 24.8998 30.1515 25.5679 30.735C26.236 31.3185 27.0929 31.64 27.9799 31.64C28.8669 31.64 29.7239 31.3185 30.3919 30.735C31.06 30.1515 31.4939 29.3456 31.6132 28.4667H35.3732C35.4749 28.4696 35.5749 28.4403 35.6587 28.3827C35.7426 28.3252 35.806 28.2426 35.8399 28.1467C36.6673 25.8804 36.6578 23.3932 35.8132 21.1333Z" fill="black"/>
<path d="M13.3335 28C13.3305 28.7061 13.0476 29.3822 12.5468 29.88C12.049 30.3808 11.3729 30.6637 10.6668 30.6667C10.314 30.6652 9.96499 30.5937 9.63999 30.4564C9.31499 30.3191 9.02047 30.1186 8.7735 29.8667C8.28085 29.37 8.00311 28.6996 8.00017 28C7.97911 27.8184 7.97911 27.6349 8.00017 27.4533C8.02785 27.3166 8.06802 27.1827 8.12017 27.0533C8.25726 26.6989 8.46607 26.3766 8.7335 26.1067C8.84927 25.9812 8.979 25.8693 9.12017 25.7733C9.26104 25.6831 9.40806 25.6029 9.56017 25.5333C9.90845 25.3814 10.2874 25.3129 10.6668 25.3333C11.0187 25.333 11.3672 25.4024 11.6921 25.5374C12.0171 25.6724 12.3121 25.8704 12.5602 26.12C12.6783 26.2426 12.7896 26.3717 12.8935 26.5067C12.9772 26.6188 13.0487 26.7394 13.1068 26.8667L13.1735 27.0667C13.2255 27.1869 13.2657 27.312 13.2935 27.44C13.3293 27.6244 13.3428 27.8124 13.3335 28Z" fill="#373737"/>
<path d="M30.6663 28C30.6663 28.5274 30.5099 29.043 30.2169 29.4815C29.9239 29.9201 29.5074 30.2619 29.0202 30.4637C28.5329 30.6655 27.9967 30.7183 27.4794 30.6154C26.9622 30.5125 26.487 30.2586 26.1141 29.8856C25.7411 29.5127 25.4871 29.0375 25.3842 28.5203C25.2814 28.003 25.3342 27.4668 25.536 26.9795C25.7378 26.4923 26.0796 26.0758 26.5182 25.7828C26.9567 25.4897 27.4723 25.3333 27.9997 25.3333C28.7069 25.3333 29.3852 25.6143 29.8853 26.1144C30.3854 26.6145 30.6663 27.2928 30.6663 28Z" fill="#373737"/>
<path d="M32.1871 16.8533H27.8271V20.3067H34.2005L32.1871 16.8533Z" fill="white"/>
<path d="M23.3736 13.68V9.33333H4.70691C4.62691 11.76 4.58691 14.2667 4.58691 16.84C4.58691 19.4133 4.58691 21.7467 4.70691 24.08H23.3736C23.2936 21.7733 23.1336 14.9467 23.3736 13.68Z" fill="#FF8522"/>
<path d="M4.86673 27.4267H7.04007C7.03249 27.3513 7.03249 27.2754 7.04007 27.2C7.1414 26.6461 7.37464 26.1247 7.72007 25.68L8.0934 25.3333C8.15459 25.2606 8.22653 25.1977 8.30673 25.1467H4.7334L4.86673 27.4267Z" fill="#FF8522"/>
<path d="M34.8937 21.52L34.7737 21.3333H27.3337C27.2678 21.3351 27.2022 21.3237 27.1408 21.2997C27.0794 21.2757 27.0235 21.2396 26.9762 21.1936C26.929 21.1477 26.8915 21.0927 26.8658 21.0319C26.8402 20.9712 26.827 20.9059 26.827 20.84V16.3733C26.827 16.239 26.8804 16.1101 26.9754 16.0151C27.0705 15.92 27.1993 15.8667 27.3337 15.8667H31.6004L30.667 14.2267H24.307C24.187 15.56 24.307 20.3467 24.3737 24.6133C24.3719 24.7475 24.3195 24.8761 24.227 24.9733C24.1822 25.0236 24.1278 25.0644 24.067 25.0933C24.0011 25.107 23.933 25.107 23.867 25.0933H13.0537C13.0537 25.0933 13.1337 25.0933 13.1737 25.1867C13.1791 25.2131 13.1791 25.2403 13.1737 25.2667C13.3076 25.3917 13.4282 25.5302 13.5337 25.68C13.623 25.7982 13.7033 25.923 13.7737 26.0533C13.8305 26.1516 13.8796 26.2541 13.9204 26.36C13.9788 26.4896 14.0278 26.6233 14.067 26.76C14.1242 26.9282 14.1601 27.1029 14.1737 27.28H24.1604C24.1539 27.2046 24.1539 27.1288 24.1604 27.0533C24.3907 26.3644 24.8285 25.7636 25.4137 25.3333C25.506 25.2297 25.6088 25.1358 25.7204 25.0533C25.8119 24.9818 25.9101 24.9193 26.0137 24.8667C26.2447 24.7245 26.4906 24.6083 26.747 24.52C26.8869 24.4721 27.0294 24.4321 27.1737 24.4H27.3337C27.522 24.3581 27.7141 24.3357 27.907 24.3333C28.5216 24.3326 29.1264 24.4875 29.665 24.7836C30.2035 25.0797 30.6584 25.5073 30.987 26.0267C31.057 26.124 31.1194 26.2265 31.1737 26.3333C31.2539 26.4827 31.3208 26.6389 31.3737 26.8C31.3999 26.8653 31.4222 26.9321 31.4404 27C31.4976 27.1682 31.5334 27.3429 31.547 27.52H34.947C35.6118 25.5721 35.593 23.4558 34.8937 21.52Z" fill="#FF8522"/>
<path d="M20.2664 16.16C20.2794 16.2305 20.2794 16.3028 20.2664 16.3733C20.2468 16.3461 20.2363 16.3135 20.2363 16.28C20.2363 16.2465 20.2468 16.2139 20.2664 16.1867V16.16Z" fill="#EC6E00"/>
<path d="M21.1604 15.36C21.013 15.2331 20.841 15.138 20.6552 15.0807C20.4693 15.0233 20.2736 15.0049 20.0804 15.0267C19.627 15.0267 14.747 15.2 14.2137 15.2133C14.1892 14.9945 14.0958 14.7891 13.947 14.6267C13.8105 14.4937 13.6469 14.3916 13.4675 14.3272C13.2881 14.2628 13.097 14.2376 12.907 14.2533C12.6445 14.2759 12.3898 14.3541 12.1598 14.4829C11.9299 14.6116 11.7301 14.7879 11.5737 15C11.0944 14.8503 10.5845 14.8274 10.0937 14.9333C9.47289 15.0784 8.89073 15.3558 8.38704 15.7467C7.97759 16.0244 7.64212 16.398 7.40977 16.8348C7.17741 17.2716 7.05519 17.7586 7.05371 18.2533C7.06736 18.4977 7.13552 18.7358 7.25318 18.9504C7.37085 19.165 7.53504 19.3505 7.73371 19.4933C8.42411 19.8769 9.23508 19.9818 10.0004 19.7867C10.507 19.6933 18.4004 18.16 19.4404 17.9333C20.4804 17.7067 21.2804 17.4133 21.4404 16.2933C21.4474 16.2224 21.4474 16.1509 21.4404 16.08C21.4366 15.8142 21.3372 15.5586 21.1604 15.36Z" fill="white"/>
<path d="M13.4537 15.4133C13.4537 15.6933 13.1604 15.8267 12.8804 15.84C12.8047 15.8525 12.7271 15.8456 12.6548 15.82C12.5825 15.7943 12.5179 15.7508 12.467 15.6933C12.4425 15.646 12.4297 15.5934 12.4297 15.54C12.4297 15.4866 12.4425 15.4341 12.467 15.3867C12.4911 15.2869 12.5473 15.1979 12.627 15.1333C12.7481 15.0391 12.9013 14.996 13.0537 15.0133C13.1587 15.0167 13.2586 15.0599 13.3329 15.1342C13.4072 15.2085 13.4504 15.3083 13.4537 15.4133Z" fill="#FF8522"/>
<path d="M20.8003 16.1867C20.7814 16.2297 20.7539 16.2685 20.7195 16.3006C20.6851 16.3327 20.6445 16.3574 20.6003 16.3733C20.6003 16.3733 20.6003 16.1733 20.6003 16.12C20.6003 15.8533 20.6003 15.5733 20.1203 15.6133C19.942 15.6352 19.7772 15.7195 19.6552 15.8513C19.5331 15.9831 19.4617 16.1539 19.4536 16.3333C19.4536 16.5067 19.2803 16.7333 19.2003 16.7467C19.1932 16.725 19.1932 16.7017 19.2003 16.68C19.1915 16.6002 19.1915 16.5198 19.2003 16.44C19.2428 16.3108 19.2653 16.176 19.2669 16.04C19.2669 15.72 19.0936 15.6533 18.8936 15.68C18.77 15.6932 18.6535 15.7444 18.5603 15.8267L18.4936 15.92C18.4936 15.92 18.4936 15.76 18.4936 15.7067H18.027L17.867 16.3733C17.8176 16.4453 17.748 16.501 17.667 16.5333C17.667 16.5333 17.667 16.4667 17.667 16.4267C17.667 16.3867 17.5736 16.1067 17.3336 16.1333C16.6936 16.1333 16.7336 16.9733 17.1069 16.8667C17.1069 17.1867 16.9203 17.3467 16.747 17.3733C16.7344 17.3793 16.7208 17.3823 16.7069 17.3823C16.6931 17.3823 16.6795 17.3793 16.667 17.3733C16.6514 17.3211 16.6514 17.2655 16.667 17.2133C16.667 17.0667 16.9603 15.7733 16.9603 15.7733H16.3736C16.3736 15.8933 16.227 16.4133 16.227 16.4133V16.48C16.2225 16.5466 16.2225 16.6134 16.227 16.68C16.1336 16.9333 15.9736 17.1867 15.8536 17.2133H15.787V17.1067L16.0936 15.88H15.4269V16.0933C15.4012 16.0333 15.3615 15.9802 15.3112 15.9385C15.2609 15.8968 15.2015 15.8675 15.1377 15.8532C15.074 15.8389 15.0077 15.8399 14.9444 15.8562C14.8811 15.8724 14.8226 15.9034 14.7736 15.9467C14.5257 16.2314 14.3885 16.5958 14.3869 16.9733C14.3203 17.44 14.2269 17.76 13.9069 17.8C13.8776 17.8133 13.8458 17.8201 13.8136 17.8201C13.7814 17.8201 13.7496 17.8133 13.7203 17.8C13.8125 17.7376 13.8899 17.6556 13.9469 17.56C13.9745 17.528 13.9948 17.4904 14.0065 17.4497C14.0182 17.4091 14.021 17.3665 14.0147 17.3247C14.0083 17.2829 13.993 17.243 13.9699 17.2077C13.9467 17.1723 13.9161 17.1424 13.8803 17.12C13.8257 17.0882 13.7639 17.0708 13.7008 17.0694C13.6377 17.068 13.5752 17.0826 13.5192 17.1119C13.4633 17.1412 13.4157 17.1843 13.3809 17.237C13.3461 17.2897 13.3252 17.3504 13.3203 17.4133C13.3008 17.5391 13.3293 17.6676 13.4003 17.7733C13.3224 17.8342 13.2309 17.8754 13.1336 17.8933C13.1063 17.9055 13.0768 17.9117 13.0469 17.9117C13.0171 17.9117 12.9876 17.9055 12.9603 17.8933C12.8936 17.8 12.9603 17.4933 12.9603 17.4533L13.4003 16.12H12.4803C12.4803 16.2 12.3603 16.52 12.2536 16.8133C12.1046 17.1525 11.8866 17.4569 11.6134 17.7071C11.3402 17.9574 11.0179 18.1479 10.6669 18.2667C10.5492 18.3181 10.4221 18.3446 10.2936 18.3446C10.1651 18.3446 10.038 18.3181 9.92028 18.2667C9.79145 18.1586 9.69742 18.0149 9.64997 17.8536C9.60253 17.6923 9.6038 17.5206 9.65361 17.36C9.68276 17.1384 9.74571 16.9225 9.84028 16.72C10.3336 15.6267 11.1736 15.8533 11.1736 15.9467L11.0003 16C10.9041 16.0548 10.8225 16.1318 10.7622 16.2246C10.7019 16.3173 10.6646 16.4232 10.6536 16.5333C10.6493 16.6034 10.6589 16.6736 10.6817 16.74C10.7046 16.8063 10.7404 16.8675 10.7869 16.92C10.8357 16.967 10.8952 17.0013 10.9603 17.0199C11.0254 17.0385 11.0941 17.0408 11.1603 17.0267C11.3218 17.0164 11.473 16.944 11.5824 16.8247C11.6918 16.7054 11.7507 16.5485 11.7469 16.3867C11.7543 16.3 11.7439 16.2127 11.7164 16.1302C11.6889 16.0477 11.6448 15.9716 11.5869 15.9067C11.4679 15.7975 11.3257 15.7168 11.171 15.6706C11.0162 15.6244 10.853 15.6139 10.6936 15.64C10.2058 15.6748 9.73954 15.8546 9.35467 16.1564C8.96979 16.4581 8.68387 16.8679 8.53362 17.3333C8.48757 17.5256 8.49028 17.7263 8.54151 17.9172C8.59274 18.1082 8.69085 18.2833 8.82695 18.4267C9.02776 18.5888 9.26655 18.6971 9.52082 18.7415C9.77509 18.7858 10.0365 18.7646 10.2803 18.68C10.8955 18.5194 11.4368 18.1522 11.8136 17.64C11.7336 17.9733 11.8136 18.3333 12.4136 18.2533C12.7533 18.1921 13.0733 18.0504 13.3469 17.84C13.4323 17.9077 13.5314 17.9559 13.6374 17.9813C13.7433 18.0066 13.8535 18.0084 13.9603 17.9867C14.2148 17.9187 14.434 17.7567 14.5736 17.5333C14.7425 17.1948 14.8508 16.8293 14.8936 16.4533C14.8936 16.32 14.8936 16.2267 14.8936 16.1867C14.9122 16.1495 14.9397 16.1174 14.9736 16.0933C15.0803 16.0933 15.1336 16.0933 15.1069 16.2267L15.0003 16.6533C14.9309 16.8417 14.8904 17.0395 14.8803 17.24C14.8755 17.305 14.8837 17.3702 14.9043 17.432C14.9249 17.4938 14.9575 17.5509 15.0003 17.6C15.05 17.6247 15.1048 17.6375 15.1603 17.6375C15.2158 17.6375 15.2706 17.6247 15.3203 17.6C15.4758 17.5517 15.6193 17.4709 15.7411 17.3628C15.863 17.2547 15.9604 17.122 16.027 16.9733V17.0533C16.0936 17.36 16.3336 17.48 16.7069 17.4267C16.9136 17.4112 17.109 17.3264 17.2614 17.1861C17.4139 17.0457 17.5145 16.858 17.547 16.6533C17.5942 16.6317 17.6389 16.6048 17.6803 16.5733L17.5203 17.2667L18.067 17.1733L18.2536 16.2933C18.2536 16.2933 18.507 16 18.667 16C18.6745 16.0352 18.6745 16.0715 18.667 16.1067C18.6776 16.2131 18.6776 16.3203 18.667 16.4267C18.6204 16.5878 18.5891 16.753 18.5736 16.92C18.5682 16.9587 18.5723 16.9981 18.5856 17.0348C18.5989 17.0716 18.621 17.1045 18.6499 17.1308C18.6788 17.1571 18.7137 17.1759 18.7515 17.1856C18.7893 17.1954 18.829 17.1957 18.867 17.1867C19.0403 17.1867 19.2803 17.0667 19.467 16.6267C19.4925 16.7339 19.5573 16.8277 19.6487 16.8894C19.74 16.9512 19.8512 16.9764 19.9603 16.96C20.0857 16.9471 20.2048 16.8989 20.304 16.821C20.4031 16.7432 20.4781 16.6388 20.5203 16.52C20.5891 16.5025 20.6523 16.4675 20.7036 16.4184C20.755 16.3694 20.7929 16.3079 20.8136 16.24C20.8136 16.24 20.8136 16.2133 20.8003 16.1867ZM13.3336 17.6267C13.2136 17.44 13.3336 17.2133 13.4536 17.2133C13.5736 17.2133 13.5869 17.28 13.5336 17.4C13.4916 17.4941 13.4218 17.5732 13.3336 17.6267ZM17.1069 16.64C17.1069 16.64 17.1069 16.64 16.9869 16.64C16.867 16.64 16.907 16.64 16.907 16.64C16.907 16.64 16.9069 16.4933 17.0003 16.4667H17.0803C17.1274 16.5126 17.1559 16.5743 17.1603 16.64H17.1069ZM20.187 16.3733C20.1674 16.3461 20.1569 16.3135 20.1569 16.28C20.1569 16.2465 20.1674 16.2139 20.187 16.1867C20.215 16.2455 20.233 16.3086 20.2403 16.3733H20.187ZM20.187 15.9733C20.187 15.9733 19.9869 15.9733 19.9736 16.2667C19.9746 16.3145 19.9872 16.3614 20.0105 16.4032C20.0337 16.4451 20.0668 16.4806 20.1069 16.5067C20.1069 16.6267 20.0136 16.76 19.9069 16.7733C19.8924 16.7804 19.8765 16.7841 19.8603 16.7841C19.8441 16.7841 19.8282 16.7804 19.8136 16.7733C19.8136 16.7733 19.8136 16.7733 19.8136 16.6133C19.8136 16.4533 19.9469 15.72 20.1203 15.7067C20.2936 15.6933 20.1203 15.7067 20.187 15.7067C20.2259 15.7438 20.2549 15.7901 20.2712 15.8414C20.2875 15.8926 20.2906 15.9472 20.2803 16L20.187 15.9733Z" fill="#FF8522"/>
</svg>
